<?xml version="1.0" standalone="no"?><!DOCTYPE svg PUBLIC "-//W3C//DTD SVG 1.1//EN" "http://www.w3.org/Graphics/SVG/1.1/DTD/svg11.dtd"><svg t="1575169426588" class="icon" viewBox="0 0 1024 1024" version="1.1" xmlns="http://www.w3.org/2000/svg" p-id="1319" width="48" height="48" xmlns:xlink="http://www.w3.org/1999/xlink"><defs><style type="text/css"></style></defs><path d="M1174.80359506-150.80359506m0 110.46726541l0 1104.6726593q0 110.46726543-110.46726541 110.46726541l-1104.6726593 0q-110.46726543 0-110.46726541-110.46726541l0-1104.6726593q0-110.46726543 110.46726541-110.46726541l1104.6726593 0q110.46726543 0 110.46726541 110.46726541Z" fill="#01778b" p-id="1320"></path><path d="M495.31944329 603.57736295a50.59400819 50.59400819 0 0 0 58.38194913-12.9246701l178.34940115-203.09406782L732.05079357 733.04499895a55.12316522 55.12316522 0 0 0 110.24633174 0l0-482.74195217c2.20934574-10.82579248 1.10467225-22.14868637-2.98261618-32.53260892a55.17839929 55.17839929 0 0 0-104.99913706 2.20934445l-222.70200792 257.55443076-225.46368916-264.1824667c-6.51756912-14.63691315-19.22130427-25.95980704-34.79718876-30.54419816-13.80840865-4.80532606-29.16335819-3.31401797-41.81186053 4.41869023a55.12316522 55.12316522 0 0 0-28.94242323 48.49512926L180.59820249 733.04499895a55.12316522 55.12316522 0 0 0 110.30156449 0l0-351.83824214 181.27678325 207.51275932a49.15793286 49.15793286 0 0 0 23.14289306 14.85784682z" fill="#FFFFFF" p-id="1321"></path></svg>